<svg width="265" height="559" viewBox="0 0 265 559" fill="none" xmlns="http://www.w3.org/2000/svg">
<path d="M196.212 117.594C190.313 140.109 167.027 154.402 156.122 158.734C153.533 108.087 167.806 89.9129 180.378 89.7505C188.114 89.6506 202.111 95.0795 196.212 117.594Z" fill="#99A77C"/>
<path d="M180.901 257.763C157.584 268.906 128.771 259.415 117.279 253.276C158.358 214.765 183.999 213.833 193.151 224.374C198.783 230.861 204.218 246.62 180.901 257.763Z" fill="#99A77C"/>
<path d="M86.4068 220.565C94.8139 243.013 120.171 255.213 131.799 258.507C129.136 206.344 112.605 189.222 99.7077 190.375C91.7711 191.085 77.9997 198.116 86.4068 220.565Z" fill="#99A77C"/>
<path d="M174.753 369.851C160.707 386.876 134.975 389.898 123.865 389.282C141.814 344.668 161.336 334.714 172.219 339.583C178.916 342.579 188.798 352.827 174.753 369.851Z" fill="#99A77C"/>
<path d="M68.2207 372.302C87.8896 391.655 120.279 392.085 134.015 389.88C105.922 336.724 80.3579 326.873 67.4551 334.335C59.5149 338.927 48.5517 352.949 68.2207 372.302Z" fill="#99A77C"/>
<path d="M194.798 468.416C181.368 491.051 151.614 498.483 138.415 499.37C151.397 442.823 172.57 427.929 186.278 432.213C194.714 434.849 208.227 445.781 194.798 468.416Z" fill="#99A77C"/>
<path d="M68.3001 487.774C97.4123 504.402 138.521 501.928 155.437 498.612C108.314 450.632 73.8004 443.552 59.0821 451.786C50.0247 456.854 39.1879 471.146 68.3001 487.774Z" fill="#99A77C"/>
<path d="M181.489 557.123C138.585 491.071 75.9526 313.916 168.655 133.71" stroke="#9BC349" stroke-width="2" stroke-linecap="round"/>
</svg>
