<svg width="559" height="341" viewBox="0 0 559 341" fill="none" xmlns="http://www.w3.org/2000/svg">
<path d="M489.821 64.9706C466.795 81.1713 459.823 109.439 459.216 121.547C517.219 99.6981 532.085 77.868 527.348 66.2214C524.434 59.0542 512.848 48.77 489.821 64.9706Z" fill="#99A77C"/>
<path d="M347.191 169.455C344.359 186.145 358.171 199.314 365.43 203.812C384.469 168.357 379.158 153.632 369.17 151.862C363.024 150.772 350.024 152.766 347.191 169.455Z" fill="#99A77C"/>
<path d="M392.056 211.205C375.295 211.911 360.387 201.854 355.029 196.738C389.269 186.623 404.876 191.167 407.733 197.897C409.491 202.039 408.817 210.499 392.056 211.205Z" fill="#99A77C"/>
<path d="M209.441 229.55C199.523 242.89 204.492 258.558 208.217 264.725C239.671 240.558 242.194 226.286 235.042 221.573C230.641 218.674 219.359 216.209 209.441 229.55Z" fill="#99A77C"/>
<path d="M234.858 289.317C216.449 282.625 207.039 263.452 204.635 254.702C247.893 257.643 261.646 270.309 260.319 279.927C259.503 285.845 253.268 296.009 234.858 289.317Z" fill="#99A77C"/>
<path d="M84.4636 252.922C68.6481 268.094 72.2847 288.435 76.08 296.709C122.756 271.27 128.866 253.81 120.211 246.834C114.885 242.542 100.279 237.749 84.4636 252.922Z" fill="#99A77C"/>
<path d="M96.1815 320.747C78.961 313.843 74.7254 294.731 74.7602 286.038C118.932 289.615 129.573 302.358 125.404 311.851C122.838 317.693 113.402 327.651 96.1815 320.747Z" fill="#99A77C"/>
<path d="M1.00006 288.804C92.1129 296.686 315.965 269.568 482.47 98.0415" stroke="#9BC349" stroke-width="2" stroke-linecap="round"/>
<path d="M545.424 183.013C536.741 199.28 519.018 208.8 511.242 211.527C520.866 174.282 533.819 161.544 541.71 161.943C546.566 162.188 554.107 166.746 545.424 183.013Z" fill="#99A77C"/>
<path d="M408.503 307.093C395.401 299.856 387.905 283.023 385.794 275.512C415.933 281.86 426.109 293.658 425.677 301.557C425.412 306.417 421.605 314.33 408.503 307.093Z" fill="#99A77C"/>
<path d="M391.209 244.057C383.145 258.767 385.55 276.588 387.76 283.66C412.007 257.453 414.854 241.45 410.088 235.905C407.155 232.493 399.273 229.346 391.209 244.057Z" fill="#99A77C"/>
<path d="M302.799 323.138C286.482 319.957 279.602 305.029 278.202 297.962C317.729 294.639 329.207 303.49 327.094 311.79C325.794 316.897 319.115 326.318 302.799 323.138Z" fill="#99A77C"/>
<path d="M281.543 271.853C272.368 285.671 278.228 301.564 282.305 307.784C312.427 282.481 314.145 267.861 306.72 263.195C302.15 260.324 290.717 258.036 281.543 271.853Z" fill="#99A77C"/>
<path d="M178.065 319.557C168.514 316.986 169.274 308.405 170.848 304.435C197.87 304.58 202.259 310.038 197.953 314.512C195.303 317.265 187.615 322.129 178.065 319.557Z" fill="#99A77C"/>
<path d="M176.631 278.652C169.471 289.164 168.937 304.891 169.564 311.441C188.925 295.141 192.753 282.249 190.233 276.368C188.682 272.749 183.791 268.139 176.631 278.652Z" fill="#99A77C"/>
<path d="M1.97858 289.016C159.645 313.349 486.979 324.016 534.979 172.016" stroke="#9BC349" stroke-width="2" stroke-linecap="round"/>
</svg>
