<svg width="559" height="341" viewBox="0 0 559 341" fill="none" xmlns="http://www.w3.org/2000/svg">
<path d="M68.4702 64.9706C91.4968 81.1713 98.4685 109.439 99.076 121.547C41.0725 99.6981 26.2069 77.868 30.9431 66.2214C33.8577 59.0542 45.4435 48.77 68.4702 64.9706Z" fill="#99A77C"/>
<path d="M211.1 169.455C213.932 186.145 200.121 199.314 192.861 203.812C173.822 168.357 179.134 153.632 189.121 151.862C195.268 150.772 208.268 152.766 211.1 169.455Z" fill="#99A77C"/>
<path d="M166.236 211.205C182.997 211.911 197.904 201.854 203.263 196.738C169.022 186.623 153.416 191.167 150.559 197.897C148.801 202.039 149.475 210.499 166.236 211.205Z" fill="#99A77C"/>
<path d="M348.851 229.55C358.769 242.89 353.799 258.558 350.075 264.725C318.62 240.558 316.098 226.286 323.249 221.573C327.65 218.674 338.932 216.209 348.851 229.55Z" fill="#99A77C"/>
<path d="M323.433 289.317C341.843 282.625 351.253 263.452 353.657 254.702C310.398 257.643 296.646 270.309 297.972 279.927C298.789 285.845 305.024 296.009 323.433 289.317Z" fill="#99A77C"/>
<path d="M473.828 252.922C489.643 268.094 486.007 288.435 482.212 296.709C435.535 271.27 429.426 253.81 438.08 246.834C443.406 242.542 458.012 237.749 473.828 252.922Z" fill="#99A77C"/>
<path d="M462.11 320.747C479.331 313.843 483.566 294.731 483.531 286.038C439.36 289.615 428.718 302.358 432.888 311.851C435.453 317.693 444.89 327.651 462.11 320.747Z" fill="#99A77C"/>
<path d="M557.291 288.804C466.179 296.686 242.327 269.568 75.822 98.0415" stroke="#9BC349" stroke-width="2" stroke-linecap="round"/>
<path d="M12.8675 183.013C21.5509 199.28 39.2734 208.8 47.0492 211.527C37.4253 174.282 24.473 161.544 16.5817 161.943C11.7256 162.188 4.18411 166.746 12.8675 183.013Z" fill="#99A77C"/>
<path d="M149.788 307.093C162.89 299.856 170.387 283.023 172.497 275.512C142.359 281.86 132.182 293.658 132.614 301.557C132.88 306.417 136.686 314.33 149.788 307.093Z" fill="#99A77C"/>
<path d="M167.082 244.057C175.147 258.767 172.742 276.588 170.531 283.66C146.285 257.453 143.437 241.45 148.203 235.905C151.136 232.493 159.018 229.346 167.082 244.057Z" fill="#99A77C"/>
<path d="M255.493 323.138C271.809 319.957 278.689 305.029 280.089 297.962C240.563 294.639 229.085 303.49 231.197 311.79C232.497 316.897 239.176 326.318 255.493 323.138Z" fill="#99A77C"/>
<path d="M276.749 271.853C285.924 285.671 280.063 301.564 275.986 307.784C245.865 282.481 244.146 267.861 251.572 263.195C256.141 260.324 267.574 258.036 276.749 271.853Z" fill="#99A77C"/>
<path d="M380.227 319.557C389.778 316.986 389.018 308.405 387.443 304.435C360.421 304.58 356.033 310.038 360.339 314.512C362.989 317.265 370.676 322.129 380.227 319.557Z" fill="#99A77C"/>
<path d="M381.66 278.652C388.82 289.164 389.355 304.891 388.727 311.441C369.366 295.141 365.539 282.249 368.059 276.368C369.609 272.749 374.5 268.139 381.66 278.652Z" fill="#99A77C"/>
<path d="M556.313 289.016C398.646 313.349 71.3129 324.016 23.3129 172.016" stroke="#9BC349" stroke-width="2" stroke-linecap="round"/>
</svg>
