<svg width="265" height="559" viewBox="0 0 265 559" fill="none" xmlns="http://www.w3.org/2000/svg">
<path d="M230.656 80.7664C219.423 123.638 175.083 150.853 154.318 159.101C149.389 62.6627 176.567 28.0571 200.505 27.748C215.235 27.5577 241.889 37.8951 230.656 80.7664Z" fill="#99A77C"/>
<path d="M211.174 260.873C179.53 275.023 140.296 262.7 124.635 254.77C180.281 205.649 215.143 204.597 227.647 218.155C235.341 226.499 242.819 246.723 211.174 260.873Z" fill="#99A77C"/>
<path d="M46.7837 187.273C67.1248 223.037 111.208 248.94 130.707 257.421C110.247 179.568 78.6556 149.142 58.5238 146.833C46.135 145.411 26.4427 151.51 46.7837 187.273Z" fill="#99A77C"/>
<path d="M223.453 346.818C193.101 375.379 142.684 384.73 121.269 385.835C164.265 314.46 203.926 295.679 224.117 301.103C236.542 304.441 253.804 318.256 223.453 346.818Z" fill="#99A77C"/>
<path d="M24.7811 358.116C55.2219 388.892 105.738 389.18 127.191 385.477C84.029 300.624 44.2749 285.151 24.0564 297.271C11.6143 304.729 -5.65983 327.34 24.7811 358.116Z" fill="#99A77C"/>
<path d="M234.379 444.199C208.52 471.672 164.086 488.322 145.101 493.212C180.531 430.768 215.042 408.977 233.193 409.286C244.362 409.476 260.237 416.725 234.379 444.199Z" fill="#99A77C"/>
<path d="M42.7612 478.198C78.3095 504.664 129.935 498.226 151.304 491.698C94.9215 413.304 52.0829 403.252 33.1953 417.96C21.5721 427.012 7.21285 451.732 42.7612 478.198Z" fill="#99A77C"/>
<path d="M181.489 557.123C138.585 491.071 75.9526 313.916 168.655 133.71" stroke="#9BC349" stroke-width="2" stroke-linecap="round"/>
</svg>
