<svg width="265" height="559" viewBox="0 0 265 559" fill="none" xmlns="http://www.w3.org/2000/svg">
<path d="M230.656 80.7664C219.423 123.638 175.083 150.853 154.318 159.101C149.389 62.6627 176.567 28.0571 200.505 27.748C215.235 27.5577 241.888 37.8951 230.656 80.7664Z" fill="#99A77C"/>
<path d="M226.741 255.948C186.754 275.058 137.341 258.781 117.633 248.253C188.081 182.209 232.054 180.611 247.749 198.688C257.407 209.812 266.728 236.838 226.741 255.948Z" fill="#99A77C"/>
<path d="M51.4328 184.104C66.9761 225.607 113.858 248.162 135.356 254.252C130.431 157.813 99.8682 126.157 76.0239 128.289C61.3505 129.601 35.8895 142.6 51.4328 184.104Z" fill="#99A77C"/>
<path d="M218.775 348.491C190.57 382.677 138.901 388.746 116.591 387.508C152.633 297.922 191.834 277.936 213.687 287.712C227.134 293.727 246.979 314.305 218.775 348.491Z" fill="#99A77C"/>
<path d="M29.5184 357.244C61.109 388.327 113.13 389.017 135.191 385.477C90.0714 300.101 49.0123 284.28 28.2888 296.264C15.5359 303.64 -2.07218 326.161 29.5184 357.244Z" fill="#99A77C"/>
<path d="M232.037 442.619C208.779 480.343 158.426 493.43 136.157 495.257C159.596 401.58 195.692 376.416 218.677 383.108C232.821 387.226 255.296 404.894 232.037 442.619Z" fill="#99A77C"/>
<path d="M45.7612 477.198C81.3095 503.663 132.935 497.225 154.304 490.698C97.9214 412.303 55.0829 402.251 36.1952 416.96C24.5721 426.012 10.2128 450.732 45.7612 477.198Z" fill="#99A77C"/>
<path d="M181.489 557.123C138.585 491.071 75.9526 313.916 168.655 133.71" stroke="#9BC349" stroke-width="2" stroke-linecap="round"/>
</svg>
