<svg width="560" height="341" viewBox="0 0 560 341" fill="none" xmlns="http://www.w3.org/2000/svg">
<path d="M455.569 20.8153C428.378 44.9233 422.261 82.5212 422.601 98.3066C492.811 62.1688 509.335 31.8577 502.387 17.39C498.11 8.48678 482.76 -3.29264 455.569 20.8153Z" fill="#99A77C"/>
<path d="M300.895 143.151C298.708 164.148 320.341 178.522 331.431 183.084C355.035 136.699 345.596 119.242 330.851 118.421C321.777 117.915 303.083 122.154 300.895 143.151Z" fill="#99A77C"/>
<path d="M375.125 189.195C350.807 192.358 327.939 181.977 319.545 176.392C368.218 159.221 391.464 162.698 396.403 170.618C399.443 175.493 399.443 186.032 375.125 189.195Z" fill="#99A77C"/>
<path d="M195.389 211.51C187.83 230.259 199.937 245.065 206.935 250.124C237.658 210.306 235.531 193.759 224.747 191.762C218.11 190.533 202.948 192.762 195.389 211.51Z" fill="#99A77C"/>
<path d="M249.728 265.184C223.992 265.93 204.974 249.257 198.682 240.827C254.399 225.233 276.478 232.977 278.382 243.965C279.554 250.727 275.464 264.438 249.728 265.184Z" fill="#99A77C"/>
<path d="M82.2375 235.126C64.8754 254.868 71.5154 278.525 77.0057 287.885C130.395 252.506 135.813 231.155 124.614 223.88C117.723 219.403 99.5995 215.385 82.2375 235.126Z" fill="#99A77C"/>
<path d="M103.887 314.055C82.3795 307.833 75.1547 285.698 74.2307 275.408C127.828 274.646 142.059 288.52 138.093 300.224C135.652 307.427 125.394 320.277 103.887 314.055Z" fill="#99A77C"/>
<path d="M0.999982 286.774C92.4507 286.103 312.787 238.176 462.526 51.8336" stroke="#9BC349" stroke-width="2" stroke-linecap="round"/>
<path d="M543.589 186.65C531.545 212.375 504.733 225.596 492.833 228.991C504.374 168.598 523.425 149.347 535.8 151.155C543.415 152.268 555.634 160.925 543.589 186.65Z" fill="#99A77C"/>
<path d="M407.23 312.154C378.88 304.235 362.659 285.816 358.093 277.596C423.306 284.542 445.325 297.453 444.391 306.096C443.816 311.415 435.579 320.073 407.23 312.154Z" fill="#99A77C"/>
<path d="M369.809 243.176C352.36 259.273 357.564 278.774 362.347 286.512C414.811 257.835 420.971 240.323 410.659 234.256C404.313 230.522 387.258 227.079 369.809 243.176Z" fill="#99A77C"/>
<path d="M322.026 320.933C295.402 317.689 284.176 302.459 281.891 295.249C346.387 291.859 365.116 300.889 361.669 309.356C359.548 314.567 348.649 324.177 322.026 320.933Z" fill="#99A77C"/>
<path d="M287.342 268.613C272.372 282.71 281.934 298.924 288.586 305.269C337.736 279.455 340.54 264.54 328.424 259.78C320.968 256.851 302.313 254.516 287.342 268.613Z" fill="#99A77C"/>
<path d="M178.271 317.739C157.361 315.158 159.025 306.542 162.471 302.557C221.632 302.702 231.24 308.181 221.813 312.673C216.011 315.438 199.181 320.321 178.271 317.739Z" fill="#99A77C"/>
<path d="M175.133 276.67C159.458 287.225 158.287 303.015 159.661 309.59C202.048 293.225 210.428 280.282 204.911 274.377C201.517 270.744 190.808 266.116 175.133 276.67Z" fill="#99A77C"/>
<path d="M2.99994 287C160.667 311.333 488 322 536 170" stroke="#9BC349" stroke-width="2" stroke-linecap="round"/>
</svg>
