<svg width="560" height="341" viewBox="0 0 560 341" fill="none" xmlns="http://www.w3.org/2000/svg">
<path d="M103.722 20.8153C130.913 44.9233 137.031 82.5212 136.69 98.3066C66.4808 62.1688 49.9562 31.8577 56.9049 17.39C61.181 8.48678 76.531 -3.29264 103.722 20.8153Z" fill="#99A77C"/>
<path d="M258.396 143.151C260.584 164.148 238.951 178.522 227.861 183.084C204.256 136.699 213.696 119.242 228.44 118.421C237.514 117.915 256.209 122.154 258.396 143.151Z" fill="#99A77C"/>
<path d="M184.167 189.195C208.485 192.358 231.353 181.977 239.747 176.392C191.074 159.221 167.828 162.698 162.888 170.618C159.848 175.493 159.848 186.032 184.167 189.195Z" fill="#99A77C"/>
<path d="M363.902 211.51C371.461 230.259 359.354 245.065 352.356 250.124C321.633 210.306 323.76 193.759 334.545 191.762C341.181 190.533 356.344 192.762 363.902 211.51Z" fill="#99A77C"/>
<path d="M309.563 265.184C335.299 265.93 354.318 249.257 360.61 240.827C304.893 225.233 282.814 232.977 280.909 243.965C279.737 250.727 283.827 264.438 309.563 265.184Z" fill="#99A77C"/>
<path d="M477.054 235.126C494.416 254.868 487.776 278.525 482.286 287.885C428.896 252.506 423.478 231.155 434.677 223.88C441.568 219.403 459.692 215.385 477.054 235.126Z" fill="#99A77C"/>
<path d="M455.405 314.055C476.912 307.833 484.137 285.698 485.061 275.408C431.464 274.646 417.232 288.52 421.198 300.224C423.639 307.427 433.898 320.277 455.405 314.055Z" fill="#99A77C"/>
<path d="M558.291 286.774C466.841 286.103 246.505 238.176 96.7657 51.8336" stroke="#9BC349" stroke-width="2" stroke-linecap="round"/>
<path d="M15.7021 186.65C27.7469 212.375 54.5582 225.596 66.4582 228.991C54.9174 168.598 35.8666 149.347 23.4918 151.155C15.8766 152.268 3.65734 160.925 15.7021 186.65Z" fill="#99A77C"/>
<path d="M152.062 312.154C180.411 304.235 196.632 285.816 201.199 277.596C135.986 284.542 113.966 297.453 114.9 306.096C115.475 311.415 123.712 320.073 152.062 312.154Z" fill="#99A77C"/>
<path d="M189.483 243.176C206.932 259.273 201.728 278.774 196.945 286.512C144.481 257.835 138.32 240.323 148.633 234.256C154.979 230.522 172.033 227.079 189.483 243.176Z" fill="#99A77C"/>
<path d="M237.266 320.933C263.89 317.689 275.115 302.459 277.4 295.249C212.904 291.859 194.176 300.889 197.623 309.356C199.744 314.567 210.642 324.177 237.266 320.933Z" fill="#99A77C"/>
<path d="M271.949 268.613C286.92 282.71 277.358 298.924 270.705 305.269C221.556 279.455 218.751 264.54 230.868 259.78C238.324 256.851 256.979 254.516 271.949 268.613Z" fill="#99A77C"/>
<path d="M381.021 317.739C401.931 315.158 400.266 306.542 396.82 302.557C337.659 302.702 328.052 308.181 337.479 312.673C343.28 315.438 360.111 320.321 381.021 317.739Z" fill="#99A77C"/>
<path d="M384.158 276.67C399.834 287.225 401.005 303.015 399.631 309.59C357.243 293.225 348.864 280.282 354.38 274.377C357.775 270.744 368.483 266.116 384.158 276.67Z" fill="#99A77C"/>
<path d="M556.292 287C398.625 311.333 71.2915 322 23.2915 170" stroke="#9BC349" stroke-width="2" stroke-linecap="round"/>
</svg>
