<svg width="13" height="18" viewBox="0 0 13 18" fill="none" xmlns="http://www.w3.org/2000/svg">
<path d="M11.5917 14.6146C11.3657 14.2995 10.2453 12.7636 10.0184 12.5124C9.79025 12.2616 9.61164 12.1033 9.24478 12.3032C8.88 12.5031 7.92761 12.885 7.64029 12.9958C7.35337 13.1079 7.16001 13.0379 6.93357 12.7236C6.18495 11.8382 5.63772 10.895 5.2598 9.88873L5.26416 9.90053C4.92499 8.94106 4.72664 7.94265 4.6753 6.92967L4.67475 6.87448C4.65739 6.4737 4.90441 6.39136 5.13787 6.31877C5.34817 6.25406 5.63425 6.12152 5.88118 6.02328C6.07977 5.9387 6.27229 5.82348 6.44652 5.68281L6.45887 5.67136C6.53226 5.61809 6.59685 5.54542 6.64381 5.45609C6.70076 5.34773 6.7232 5.23073 6.71548 5.11688L6.71583 5.12023C6.71894 4.92552 6.89995 3.0909 6.96783 2.34116C7.0328 1.611 6.73582 1.55942 6.55328 1.4508C6.37896 1.34862 6.1747 1.23914 5.96957 1.13132C5.6385 0.967859 5.27078 0.962489 4.95105 1.08474L4.94935 1.08596C3.95512 1.36674 3.0767 2.03775 2.55977 3.02123C2.54846 3.04274 2.53672 3.06507 2.52625 3.08701L2.52798 3.0837C1.99854 4.35408 1.88088 5.68256 2.11415 6.9379L2.11074 6.92027C2.40318 9.58542 3.34426 12.089 4.86221 14.2402L4.92126 14.3167C5.26672 14.7601 5.73216 15.2845 6.22736 15.7844L6.33278 15.8831C6.63751 16.191 7.02331 16.4793 7.46005 16.7089C7.71067 16.8406 7.9689 16.9479 8.22929 17.0309L8.20191 17.0207C9.18309 17.301 10.1972 17.1531 11.0277 16.6596L11.0425 16.6495C11.3381 16.4185 11.6032 16.107 11.7984 15.7357C11.8788 15.5826 11.9443 15.426 11.9952 15.2669L11.9894 15.2839C11.9807 15.1157 11.8155 14.9318 11.5892 14.6154L11.5917 14.6146Z" fill="black"/>
</svg>
