<svg width="269" height="56" viewBox="0 0 269 56" fill="none" xmlns="http://www.w3.org/2000/svg">
<path d="M261.78 31.9786C267.633 24.7232 266.702 13.8196 265.505 9.27472C248.566 20.4846 246.103 29.4065 249.041 33.4967C250.848 36.0137 255.926 39.2339 261.78 31.9786Z" fill="#9BC349"/>
<path d="M9.72 42.96L0 12.36H8.82L14.1 32.22H14.52L20.64 12.36H28.68L34.8 32.22H35.22L40.5 12.36H49.2L39.42 42.96H30.96L24.72 23.16H24.3L18.12 42.96H9.72Z" fill="#4A5D23"/>
<path d="M67.0959 43.92C64.0159 43.92 61.2559 43.22 58.8159 41.82C56.4159 40.42 54.5159 38.5 53.1159 36.06C51.7559 33.62 51.0759 30.84 51.0759 27.72C51.0759 24.8 51.7559 22.1 53.1159 19.62C54.4759 17.14 56.3359 15.16 58.6959 13.68C61.0559 12.16 63.7559 11.4 66.7959 11.4C70.0759 11.4 72.8359 12.1 75.0759 13.5C77.3159 14.9 79.0159 16.78 80.1759 19.14C81.3359 21.46 81.9159 24.04 81.9159 26.88C81.9159 27.52 81.8959 28.08 81.8559 28.56C81.8159 29 81.7759 29.32 81.7359 29.52H55.4559V23.94H74.3559C74.3159 23.26 74.1159 22.56 73.7559 21.84C73.3959 21.12 72.8959 20.46 72.2559 19.86C71.6159 19.26 70.8359 18.78 69.9159 18.42C69.0359 18.02 68.0159 17.82 66.8559 17.82C65.3359 17.82 63.9359 18.22 62.6559 19.02C61.4159 19.82 60.4359 20.94 59.7159 22.38C58.9959 23.78 58.6359 25.46 58.6359 27.42C58.6359 29.46 59.0159 31.2 59.7759 32.64C60.5359 34.04 61.5559 35.12 62.8359 35.88C64.1559 36.6 65.6159 36.96 67.2159 36.96C69.0959 36.96 70.6759 36.56 71.9559 35.76C73.2359 34.92 74.2359 33.88 74.9559 32.64L81.3159 35.76C79.8759 38.28 77.9959 40.28 75.6759 41.76C73.3559 43.2 70.4959 43.92 67.0959 43.92Z" fill="#4A5D23"/>
<path d="M87.795 42.96V0H95.655V42.96H87.795Z" fill="#4A5D23"/>
<path d="M103.205 42.96V0H111.065V42.96H103.205Z" fill="#4A5D23"/>
<path d="M118.615 42.96V0H126.475V42.96H118.615ZM123.235 36.54V26.82L137.875 12.36H147.535V12.84L123.235 36.54ZM138.775 42.96L128.455 26.46L133.915 21.12L148.075 42.48V42.96H138.775Z" fill="#4A5D23"/>
<path d="M165.475 43.92C162.395 43.92 159.635 43.22 157.195 41.82C154.795 40.42 152.895 38.5 151.495 36.06C150.135 33.62 149.455 30.84 149.455 27.72C149.455 24.8 150.135 22.1 151.495 19.62C152.855 17.14 154.715 15.16 157.075 13.68C159.435 12.16 162.135 11.4 165.175 11.4C168.455 11.4 171.215 12.1 173.455 13.5C175.695 14.9 177.395 16.78 178.555 19.14C179.715 21.46 180.295 24.04 180.295 26.88C180.295 27.52 180.275 28.08 180.235 28.56C180.195 29 180.155 29.32 180.115 29.52H153.835V23.94H172.735C172.695 23.26 172.495 22.56 172.135 21.84C171.775 21.12 171.275 20.46 170.635 19.86C169.995 19.26 169.215 18.78 168.295 18.42C167.415 18.02 166.395 17.82 165.235 17.82C163.715 17.82 162.315 18.22 161.035 19.02C159.795 19.82 158.815 20.94 158.095 22.38C157.375 23.78 157.015 25.46 157.015 27.42C157.015 29.46 157.395 31.2 158.155 32.64C158.915 34.04 159.935 35.12 161.215 35.88C162.535 36.6 163.995 36.96 165.595 36.96C167.475 36.96 169.055 36.56 170.335 35.76C171.615 34.92 172.615 33.88 173.335 32.64L179.695 35.76C178.255 38.28 176.375 40.28 174.055 41.76C171.735 43.2 168.875 43.92 165.475 43.92Z" fill="#4A5D23"/>
<path d="M186.174 55.92V12.36H193.554V16.08H194.034C194.554 15.28 195.234 14.52 196.074 13.8C196.954 13.08 197.994 12.5 199.194 12.06C200.394 11.62 201.734 11.4 203.214 11.4C206.014 11.4 208.514 12.1 210.714 13.5C212.954 14.86 214.714 16.76 215.994 19.2C217.314 21.64 217.974 24.46 217.974 27.66C217.974 30.86 217.314 33.68 215.994 36.12C214.714 38.56 212.954 40.48 210.714 41.88C208.514 43.24 206.014 43.92 203.214 43.92C201.014 43.92 199.114 43.46 197.514 42.54C195.954 41.58 194.794 40.5 194.034 39.3H193.554L194.034 43.62V55.92H186.174ZM201.834 36.66C203.314 36.66 204.674 36.3 205.914 35.58C207.194 34.82 208.214 33.76 208.974 32.4C209.774 31.04 210.174 29.46 210.174 27.66C210.174 25.82 209.774 24.24 208.974 22.92C208.214 21.6 207.194 20.58 205.914 19.86C204.674 19.1 203.314 18.72 201.834 18.72C200.394 18.72 199.034 19.1 197.754 19.86C196.514 20.58 195.494 21.62 194.694 22.98C193.934 24.3 193.554 25.86 193.554 27.66C193.554 29.46 193.934 31.04 194.694 32.4C195.494 33.72 196.514 34.76 197.754 35.52C199.034 36.28 200.394 36.66 201.834 36.66Z" fill="#4A5D23"/>
<path d="M220.398 19.08V12.36H226.038V19.08H220.398ZM235.878 43.44C232.718 43.44 230.238 42.54 228.438 40.74C226.638 38.9 225.738 36.38 225.738 33.18V3.72H233.598V31.74C233.598 33.22 233.898 34.32 234.498 35.04C235.098 35.72 236.078 36.06 237.438 36.06C238.078 36.06 238.678 35.98 239.238 35.82C239.798 35.62 240.498 35.26 241.338 34.74V42.42C240.458 42.74 239.558 42.98 238.638 43.14C237.758 43.34 236.838 43.44 235.878 43.44ZM233.298 19.08V12.36H241.098V19.08H233.298Z" fill="#4A5D23"/>
</svg>
