<svg width="20" height="20" viewBox="0 0 20 20" fill="none" xmlns="http://www.w3.org/2000/svg">
<g clip-path="url(#clip0_24_29)">
<path d="M16.61 3.35187C14.9287 1.67062 12.6063 0.630615 10.0406 0.630615C4.91 0.630615 0.75 4.78999 0.75 9.92124C0.75 11.6287 1.21062 13.2281 2.01375 14.6031L1.99 14.5594L0.671875 19.3731L5.59625 18.0812C6.87813 18.7931 8.4075 19.2119 10.035 19.2119H10.0388C15.1694 19.21 19.3275 15.05 19.3275 9.91936C19.3275 7.35499 18.2888 5.03374 16.6094 3.35249L16.61 3.35187ZM10.0388 17.6425H10.0356C8.58625 17.6425 7.22937 17.2425 6.07125 16.5469L6.10625 16.5662L5.82438 16.3994L2.9025 17.1662L3.68187 14.3169L3.49813 14.025C2.7575 12.8612 2.3175 11.4431 2.3175 9.92186C2.3175 5.65811 5.77438 2.20124 10.0381 2.20124C14.3019 2.20124 17.7587 5.65811 17.7587 9.92186C17.7587 14.1856 14.3031 17.6425 10.0388 17.6425ZM14.2737 11.8606C14.0419 11.7444 12.9006 11.1837 12.6881 11.1056C12.475 11.0281 12.32 10.99 12.165 11.2225C12.0112 11.4544 11.5662 11.9769 11.4306 12.1319C11.2956 12.2875 11.1594 12.3062 10.9275 12.1906C10.2087 11.8994 9.59125 11.5112 9.05438 11.0331L9.06062 11.0387C8.56125 10.5762 8.13313 10.0469 7.7875 9.46311L7.77 9.43061C7.635 9.19874 7.75563 9.07311 7.87125 8.95749C7.97563 8.85374 8.10375 8.68624 8.21938 8.55124C8.31063 8.43936 8.38875 8.31124 8.44813 8.17374L8.45187 8.16311C8.47875 8.10874 8.49437 8.04561 8.49437 7.97811C8.49437 7.89624 8.47125 7.81999 8.43125 7.75499L8.4325 7.75686C8.37375 7.64061 7.91 6.49811 7.71688 6.03311C7.52813 5.58061 7.33625 5.64249 7.19437 5.63499C7.05937 5.62874 6.90437 5.62749 6.74937 5.62749C6.5025 5.63374 6.28313 5.74499 6.13188 5.91686L6.13125 5.91811C5.63 6.39374 5.31875 7.06436 5.31875 7.80749C5.31875 7.82374 5.31875 7.84061 5.31937 7.85686V7.85436C5.40125 8.77124 5.745 9.59436 6.27375 10.265L6.26625 10.2556C7.26875 11.7425 8.605 12.9319 10.1731 13.7331L10.2319 13.76C10.5744 13.915 11.0131 14.0806 11.4619 14.2225L11.555 14.2481C11.8313 14.3356 12.1494 14.3862 12.4794 14.3862C12.6687 14.3862 12.855 14.3694 13.035 14.3375L13.0156 14.34C13.6838 14.2006 14.2381 13.7975 14.5762 13.2469L14.5819 13.2362C14.685 13.0075 14.745 12.7406 14.745 12.46C14.745 12.3444 14.735 12.2312 14.7156 12.1212L14.7175 12.1331C14.66 12.0362 14.505 11.9787 14.2725 11.8619L14.2737 11.8606Z" fill="black"/>
</g>
<defs>
<clipPath id="clip0_24_29">
<rect width="20" height="20" fill="white"/>
</clipPath>
</defs>
</svg>
